<svg xmlns="http://www.w3.org/2000/svg" shape-rendering="geometricPrecision" text-rendering="geometricPrecision" image-rendering="optimizeQuality" fill-rule="evenodd" clip-rule="evenodd" viewBox="0 0 512 446.4"><path fill="#FFC106" fill-rule="nonzero" d="M284.02 14.56c-1.62-6.19 2.11-12.55 8.3-14.18 6.2-1.62 12.55 2.09 14.18 8.3l7.51 28.87c1.63 6.2-2.1 12.55-8.3 14.18-6.2 1.62-12.55-2.09-14.17-8.3l-7.52-28.87zm79.26 61.61c27.67 7.63 49.62 25.75 62.76 48.89 13.12 23.15 17.43 51.3 9.8 78.97-6.73 24.4-21.62 44.34-40.91 57.72-.69-8.68-2.51-17.24-5.36-25.38-4.83-13.79-12.63-26.44-22.89-36.55-17.62-17.37-42.25-27.31-71.41-23.06-11.94-23.35-29.76-40.42-50.29-51.32 9.41-16.77 23.14-30.29 39.33-39.48 23.15-13.12 51.3-17.43 78.97-9.79zm8.54-65.74c1.71-6.2 8.12-9.84 14.33-8.13 6.19 1.71 9.84 8.12 8.12 14.32l-7.93 28.76c-1.71 6.2-8.12 9.84-14.32 8.12-6.2-1.71-9.84-8.12-8.13-14.32l7.93-28.75zm78.15 40.37c4.55-4.49 11.89-4.45 16.4.09 4.49 4.55 4.46 11.89-.09 16.4l-21.26 20.93c-4.54 4.5-11.88 4.46-16.39-.09-4.5-4.55-4.46-11.89.09-16.39l21.25-20.94zm47.47 73.97c6.19-1.62 12.55 2.11 14.17 8.3 1.64 6.2-2.08 12.55-8.29 14.18l-28.87 7.51c-6.2 1.63-12.54-2.1-14.18-8.3-1.62-6.2 2.09-12.55 8.3-14.18l28.87-7.51zm4.13 87.8c6.21 1.71 9.84 8.12 8.13 14.33-1.71 6.19-8.12 9.83-14.32 8.12l-28.76-7.93c-6.2-1.71-9.84-8.12-8.12-14.32 1.71-6.2 8.12-9.84 14.32-8.13l28.75 7.93zm-40.37 78.15c4.49 4.55 4.45 11.89-.09 16.4-4.55 4.49-11.89 4.46-16.4-.09l-20.93-21.26c-4.5-4.54-4.46-11.88.09-16.39 4.55-4.5 11.89-4.46 16.4.09l20.93 21.25zM210.05 62.03c-4.49-4.55-4.45-11.89.1-16.4 4.54-4.49 11.88-4.46 16.39.09l20.93 21.26c4.5 4.54 4.46 11.88-.09 16.39-4.54 4.5-11.89 4.46-16.39-.09l-20.94-21.25z"/><path fill="#FFD205" fill-rule="nonzero" d="M363.28 76.17c22.11 6.1 40.57 18.9 53.8 35.6l-108.64 64.01c-4.28.01-8.67.33-13.17.98-11.94-23.35-29.76-40.42-50.29-51.32 9.41-16.77 23.14-30.29 39.33-39.48 23.15-13.12 51.3-17.43 78.97-9.79z"/><path fill="#257FC4" fill-rule="nonzero" d="M295.27 176.76c29.16-4.25 53.79 5.69 71.41 23.06 10.26 10.11 18.06 22.76 22.89 36.55 4.8 13.71 6.69 28.6 5.16 43.29-3.09 29.7-19.87 58.55-54.28 75.43-20.73 10.16-29.97 10.39-49.6 10.38l25.92-31.56h-39.65l38.3-57.12-75.76.7-5.36.05-25.28 87.97H94.85v-.05l-4.7.02c-13.65.08-23.41.15-38.31-5.93-20.29-8.27-35.18-23.4-43.67-41.24-6.5-13.63-9.24-28.93-7.79-44 1.46-15.17 7.19-30.06 17.63-42.78 11.62-14.17 28.98-25.52 52.6-31.27 7.14-27.79 22.17-49.24 41.42-64.18 18.13-14.07 39.99-22.26 62.47-24.43 22.37-2.16 45.42 1.66 66.08 11.56 22.38 10.74 41.9 28.55 54.69 53.55z"/><path fill="#88DFF3" d="M301.96 188.95c80.38-6.7 116.19 113.75 32.85 154.62-14.02 6.87-22.16 8.54-33.32 8.94l15.28-18.6h-39.65l38.3-57.12-75.76.7-5.36.05-21.58 75.09H94.85c-14.77 0-23.95.8-38.18-5-60.22-24.56-64.16-120.88 24.66-136.46C101.01 107.6 236.56 94.76 282.7 180.52c-6.01 2.12-11.81 4.86-17.34 8.13-11.68 6.92-22.15 16.27-30.6 27.28-2.16 2.82-1.61 6.85 1.2 9 2.82 2.15 6.86 1.61 9.01-1.2 7.44-9.69 16.66-17.92 26.93-24.01 9.35-5.53 19.55-9.29 30.06-10.77z"/><path fill="#A3EDFD" d="M302.26 188.91c21.34-1.7 39.52 5.57 53.15 17.93 11.91 40.2-4.44 90.05-64.55 106.58l24.56-36.63-75.76.7-5.36.05-10.7 37.24h-171c-15.12-1.92-27.82-7.8-37.79-16.13-8.57-35.78 10.55-77.66 66.52-87.48 19.68-103.58 155.23-116.41 201.37-30.65-6 2.12-11.81 4.86-17.34 8.13-11.68 6.92-22.15 16.27-30.6 27.28-2.16 2.82-1.61 6.85 1.2 9 2.82 2.15 6.86 1.61 9.01-1.2 7.44-9.69 16.66-17.92 26.93-24.01 9.44-5.58 19.75-9.37 30.36-10.81z"/><path fill="#fff" d="M249.95 175.63c.65-34.21-82-54.97-116.18-1.07 37.02-21.42 81.45-21.33 116.18 1.07z"/><path fill="#42BDFF" d="M173.37 340.61c4.48 22.17 22.16 38.3 22.16 51.38 0 33.3-44.29 33.31-44.29 0 0-13.15 17.68-29.1 22.13-51.38zm-12.31-71.76c3.88 19.2 19.18 33.17 19.18 44.5 0 28.84-38.34 28.85-38.34 0 0-11.39 15.3-25.21 19.16-44.5zm-53.31 45.05c4.53 22.41 22.39 38.72 22.39 51.94 0 33.66-44.76 33.67-44.76 0 0-13.29 17.87-29.42 22.37-51.94z"/><path fill="#fff" d="M159.9 388.25c-.12-1.42.79-2.68 2.03-2.81 1.23-.13 2.32.92 2.44 2.35.28 3.45.93 6.63 2.17 9.37 1.22 2.65 3 4.93 5.6 6.69 1.07.72 1.42 2.31.8 3.54-.63 1.24-2.01 1.65-3.08.93-3.37-2.29-5.71-5.26-7.29-8.74-1.54-3.39-2.34-7.22-2.67-11.33zm-65.77-26.19c-.12-1.44.8-2.71 2.05-2.84 1.25-.14 2.35.93 2.46 2.37.29 3.49.95 6.7 2.21 9.48 1.22 2.67 3.03 4.98 5.65 6.75 1.08.73 1.44 2.34.81 3.59-.64 1.25-2.03 1.67-3.11.93-3.41-2.3-5.77-5.32-7.37-8.83-1.56-3.42-2.37-7.3-2.7-11.45zm55.25-51.95c-.09-1.23.69-2.33 1.77-2.44 1.06-.11 2.01.8 2.1 2.04.25 2.99.81 5.74 1.89 8.11 1.05 2.3 2.6 4.27 4.85 5.79.92.62 1.23 2 .69 3.07-.54 1.08-1.74 1.43-2.66.81-2.93-1.98-4.95-4.56-6.32-7.57-1.34-2.93-2.03-6.25-2.32-9.81z"/><path fill="#FFCD52" d="M301.93 284.06l-62.21.58-22.73 79.11 30.83.3-32.7 82.35 86.51-105.31h-37.94z"/><path fill="#F7C043" d="M257.41 284.86l-17.28.32-21.78 78.14 29.66.68-32.89 82.4 44.13-90.22-26.3-4.48z"/></svg>